# AST/ASF file generated using VICON BodyLanguage
# -----------------------------------------------
:version 1.10
:name VICON
:units
  mass 1.0
  length 0.45
  angle deg
:documentation
   .ast/.asf automatically generated from VICON data using
   VICON BodyBuilder and BodyLanguage model FoxedUp or BRILLIANT.MOD
:root
   order TX TY TZ RX RY RZ
   axis XYZ
   position 0 0 0  
   orientation 0 0 0 
:bonedata
  begin
     id 1 
     name lhipjoint
     direction 0.635376 -0.686425 0.353719 
     length 2.47244 
     axis 0 0 0  XYZ
  end
  begin
     id 2 
     name lfemur
     direction 0.34202 -0.939693 0  
     length 7.25268  
     axis 0 0 20  XYZ
    dof rx ry rz
    limits (-160.0 20.0)
           (-70.0 70.0)
           (-60.0 70.0)
  end
  begin
     id 3 
     name ltibia
     direction 0.34202 -0.939693 0   
     length 7.6767   
     axis 0 0 20   XYZ
    dof rx
    limits (-10.0 170.0)
  end
  begin
     id 4 
     name lfoot
     direction 0.0803374 -0.220725 0.972022   
     length 2.22945   
     axis -90 7.62852e-016 20   XYZ
    dof rx rz
    limits (-45.0 90.0)
           (-70.0 20.0)
  end
  begin
     id 5 
     name ltoes
     direction 1.53579e-011 -4.21994e-011 1   
     length 1.11848   
     axis -90 7.62852e-016 20   XYZ
    dof rx
    limits (-90.0 20.0)
  end
  begin
     id 6 
     name rhipjoint
     direction -0.664428 -0.664335 0.342336   
     length 2.55466  
     axis 0 0 0  XYZ 
  end
  begin
     id 7 
     name rfemur
     direction -0.34202 -0.939693 0   
     length 6.83172   
     axis 0 0 -20   XYZ
    dof rx ry rz
    limits (-160.0 20.0)
           (-70.0 70.0)
           (-70.0 60.0)
  end
  begin
     id 8 
     name rtibia
     direction -0.34202 -0.939693 0   
     length 7.62692   
     axis 0 0 -20   XYZ
    dof rx
    limits (-10.0 170.0)
 end
 begin
     id 9 
     name rfoot
     direction -0.0949276 -0.260811 0.960711   
     length 2.19684  
     axis -90 -7.62852e-016 -20   XYZ
    dof rx rz
    limits (-45.0 90.0)
           (-20.0 70.0)
  end
  begin
     id 10 
     name rtoes
     direction -1.53543e-011 -4.2183e-011 1   
     length 1.09848   
     axis -90 -7.62852e-016 -20   XYZ
    dof rx
    limits (-90.0 20.0)
  end
  begin
     id 11 
     name lowerback
     direction 0.0118782 0.999815 -0.0151555   
     length 2.15772   
     axis 0 0 0   XYZ
    dof rx ry rz
    limits (-20.0 45.0)
           (-30.0 30.0)
           (-30.0 30.0)
  end
  begin
     id 12 
     name upperback
     direction 0.00130825 0.999065 0.0432113   
     length 2.14863   
     axis 0 0 0   XYZ
    dof rx ry rz
    limits (-20.0 45.0)
           (-30.0 30.0)
           (-30.0 30.0)
  end
  begin
     id 13 
     name thorax
     direction -0.00347005 0.998773 0.0494011   
     length 2.14936   
     axis 0 0 0   XYZ
    dof rx ry rz
    limits (-20.0 45.0)
           (-30.0 30.0)
           (-30.0 30.0)
  end
  begin
     id 14 
     name lowerneck
     direction -0.0262159 0.99424 0.103921   
     length 1.69373   
     axis 0 0 0   XYZ
    dof rx ry rz
    limits (-20.0 45.0)
           (-30.0 30.0)
           (-30.0 30.0)
  end
  begin
     id 15 
     name upperneck
     direction 0.0353511 0.977394 -0.20845   
     length 1.70857   
     axis 0 0 0   XYZ
    dof rx ry rz
    limits (-20.0 45.0)
           (-30.0 30.0)
           (-30.0 30.0)
  end
  begin
     id 16
     name head
     direction 0.0139214 0.996594 -0.0812836  
     length 1.72777  
     axis 0 0 0   XYZ
    dof rx ry rz
    limits (-20.0 45.0)
           (-30.0 30.0)
           (-30.0 30.0)
  end
  begin
     id 17 
     name lclavicle
     direction 0.841247 0.537205 -0.0609508  
     length 3.55371  
     axis 0 0 0   XYZ
    dof ry rz
    limits (-20.0 10.0)
           (0.0 20.0)
  end
  begin
     id 18 
     name lhumerus
     direction 1 -4.48964e-011 1.60116e-018   
     length 4.91377   
     axis -180 -30 -90   XYZ
    dof rx ry rz
    limits (-60.0 90.0)
           (-90.0 90.0)
           (-90.0 90.0)
  end
  begin
     id 19
     name lradius
     direction 1 -4.48989e-011 -8.93847e-027   
     length 3.00291   
     axis -180 -30 -90   XYZ
    dof rx
    limits (-10.0 170.0)
  end
  begin
     id 20
     name lwrist
     direction 1 -4.48932e-011 -7.31504e-027   
     length 1.50145   
     axis 5.74121e-015 90 90   XYZ
    dof ry
    limits (-180.0 0.0)
 end
  begin
     id 21 
     name lhand
     direction 1 -4.48971e-011 -1.46301e-026   
     length 0.450922   
     axis 9.33524e-015 90 90   XYZ
    dof rx rz
    limits (-90.0 90.0)
           (-45.0 45.0)
  end
  begin
     id 22 
     name lfingers
     direction 1 -4.49039e-011 -2.92602e-026   
     length 0.363545   
     axis 1.86705e-014 90 90   XYZ
    dof rx
    limits (0.0 90.0)
  end
  begin
     id 23
     name lthumb
     direction 0.707107 -6.34941e-011 0.707107   
     length 0.52198   
     axis -90 45 2.85299e-015   XYZ
    dof rx rz
    limits (-45.0 45.0)
           (-45.0 45.0)
  end
  begin
     id 24 
     name rclavicle
     direction -0.825079 0.56158 -0.0622297   
     length 3.39909  
     axis 0 0 0   XYZ 
    dof ry rz
    limits (-10.0 20.0)
           (-20.0 0.0)
  end
  begin
     id 25 
     name rhumerus
     direction -1 -4.48965e-011 1.61691e-027  
     length 4.86725   
     axis -180 30 90   XYZ
    dof rx ry rz
    limits (-90.0 60.0)
           (-90.0 90.0)
           (-90.0 90.0)
  end
  begin
     id 26 
     name rradius
     direction -1 -4.48964e-011 -2.25776e-027   
     length 3.17144   
     axis -180 30 90   XYZ
    dof rx
    limits (-10.0 170.0)
  end
  begin
     id 27 
     name rwrist
     direction -1 -4.48961e-011 -7.31504e-027   
     length 1.58572   
     axis 5.74121e-015 -90 -90   XYZ
    dof ry
    limits (-180.0 0.0)
  end
  begin
     id 28
     name rhand
     direction -1 -4.49013e-011 -1.46301e-026   
     length 0.419368   
     axis 9.33524e-015 -90 -90   XYZ
    dof rx rz
    limits (-90.0 90.0)
           (-45.0 45.0)
  end
  begin
     id 29
     name rfingers
     direction -1 -4.489e-011 -2.92602e-026   
     length 0.338105   
     axis 1.86705e-014 -90 -90   XYZ
    dof rx
    limits (0.0 90.0)
  end
  begin
     id 30
     name rthumb
     direction -0.707107 -6.35022e-011 0.707107   
     length 0.485453   
     axis -90 -45 -2.85299e-015   XYZ
    dof rx rz
    limits (-45.0 45.0)
           (-45.0 45.0)
  end
:hierarchy
  begin
    root lhipjoint rhipjoint lowerback
    lhipjoint lfemur
    lfemur ltibia
    ltibia lfoot
    lfoot ltoes
    rhipjoint rfemur
    rfemur rtibia
    rtibia rfoot
    rfoot rtoes
    lowerback upperback
    upperback thorax
    thorax lowerneck lclavicle rclavicle
    lowerneck upperneck
    upperneck head
    lclavicle lhumerus
    lhumerus lradius
    lradius lwrist
    lwrist lhand lthumb
    lhand lfingers
    rclavicle rhumerus
    rhumerus rradius
    rradius rwrist
    rwrist rhand rthumb
    rhand rfingers
  end

#!OML:ASF H:\Swim 2\Project 1\Capture day 1\Session 1\male.ASF
:FULLY-SPECIFIED
:DEGREES
172
root 7.44325 9.84806 12.0044 95.1546 0.627822 6.86346
lowerback -1.7534 8.62883 6.73463
upperback -4.16579 11.6629 -3.87792
thorax -1.24576 5.76237 -7.45867
lowerneck -20.6457 -2.04325 9.27383
upperneck 30.0805 -6.31502 0.711781
head 13.3886 -1.45367 -2.34283
rclavicle 1.17681e-013 6.75868e-015
rhumerus 83.8758 -32.8852 -32.6309
rradius 25.5809
rwrist 18.6647
rhand -29.9407 -2.77427
rfingers 7.12502
rthumb -3.2602 -32.7291
lclavicle 1.17681e-013 6.75868e-015
lhumerus -79.3239 -40.5576 96.6892
lradius 31.8926
lwrist -3.03606
lhand -40.7155 -37.4168
lfingers 7.12502
lthumb -13.6574 -7.88484
rfemur -25.6954 4.87525 23.0894
rtibia 22.8654
rfoot 21.4354 -9.85915
rtoes 10.1872
lfemur -27.6782 -4.6404 -21.0175
ltibia 43.1743
lfoot 7.5531 0.0941926
ltoes 17.1169
173
root 7.4192 9.84671 11.997 95.1662 0.69184 7.41129
lowerback -1.80828 8.56761 6.99239
upperback -4.1788 11.578 -3.94827
thorax -1.18198 5.71737 -7.6656
lowerneck -20.4648 -2.0889 8.96466
upperneck 30.0064 -6.21672 0.642649
head 13.3259 -1.46197 -2.29667
rclavicle 1.39944e-013 -1.98785e-014
rhumerus 84.4555 -32.7847 -33.6055
rradius 25.1713
rwrist 19.7352
rhand -30.0906 -2.59535
rfingers 7.12502
rthumb -3.40499 -32.5479
lclavicle 1.39944e-013 -1.98785e-014
lhumerus -77.6667 -40.713 93.1969
lradius 30.2147
lwrist -2.24121
lhand -40.5044 -36.3942
lfingers 7.12502
lthumb -13.454 -6.84872
rfemur -25.5485 4.5488 23.2694
rtibia 23.6088
rfoot 21.7058 -9.55158
rtoes 10.9602
lfemur -28.3916 -4.63116 -20.9411
ltibia 42.8208
lfoot 7.48194 0.658349
ltoes 18.485
174
root 7.39604 9.84457 11.9901 95.2436 0.722391 7.9931
lowerback -1.93819 8.47672 7.23086
upperback -4.20643 11.4489 -4.02983
thorax -1.1025 5.6513 -7.86757
lowerneck -20.2992 -2.12369 8.65132
upperneck 29.9452 -6.10409 0.565328
head 13.2725 -1.46467 -2.25136
rclavicle 6.99722e-014 2.94201e-014
rhumerus 85.0017 -32.6557 -34.5064
rradius 24.7642
rwrist 20.8084
rhand -30.2066 -2.39106
rfingers 7.12502
rthumb -3.51702 -32.3418
lclavicle 6.99722e-014 2.94201e-014
lhumerus -75.8755 -40.7754 89.4722
lradius 28.5787
lwrist -1.71583
lhand -40.3181 -35.5129
lfingers 7.12502
lthumb -13.2744 -5.95562
rfemur -25.4191 4.23031 23.3975
rtibia 24.3692
rfoot 21.995 -9.20345
rtoes 11.7124
lfemur -29.1915 -4.72343 -20.893
ltibia 42.2867
lfoot 7.43232 1.38129
ltoes 19.9862
175
root 7.37314 9.84212 11.9846 95.3489 0.723169 8.53453
lowerback -2.09157 8.37727 7.44441
upperback -4.24031 11.3065 -4.11674
thorax -1.02404 5.57902 -8.06129
lowerneck -20.1461 -2.14307 8.31151
upperneck 29.8487 -5.97878 0.537042
head 13.211 -1.46009 -2.18024
rclavicle 2.54444e-014 -1.94809e-014
rhumerus 85.6633 -32.4522 -35.5741
rradius 24.3146
rwrist 22.1243
rhand -30.2846 -2.13525
rfingers 7.12502
rthumb -3.59227 -32.0847
lclavicle 2.54444e-014 -1.94809e-014
lhumerus -73.9882 -40.7429 85.5611
lradius 27.0091
lwrist -1.48902
lhand -40.185 -34.7213
lfingers 7.12502
lthumb -13.1461 -5.1557
rfemur -25.2607 3.9374 23.4904
rtibia 25.1063
rfoot 22.308 -8.75049
rtoes 12.2234
lfemur -30.0114 -4.86199 -20.8708
ltibia 41.563
lfoot 7.35588 2.26502
ltoes 20.9363
176
root 7.35142 9.83986 11.9811 95.4642 0.683384 9.02741
lowerback -2.24538 8.2705 7.6307
upperback -4.27478 11.1537 -4.20951
thorax -0.953156 5.50164 -8.24914
lowerneck -20.0896 -2.135 7.92789
upperneck 29.8474 -5.83786 0.568524
head 13.2151 -1.43877 -2.08054
rclavicle -1.17681e-013 2.22639e-014
rhumerus 86.4504 -32.1666 -36.8732
rradius 23.838
rwrist 23.775
rhand -30.3205 -1.82282
rfingers 7.12502
rthumb -3.62696 -31.7717
lclavicle -1.17681e-013 2.22639e-014
lhumerus -72.0398 -40.6124 81.5112
lradius 25.517
lwrist -1.58425
lhand -40.0536 -34.023
lfingers 7.12502
lthumb -13.0195 -4.4493
rfemur -25.0459 3.64874 23.5378
rtibia 25.7762
rfoot 22.6473 -8.18045
rtoes 12.5704
lfemur -30.8061 -5.06857 -20.8808
ltibia 40.6404
lfoot 7.22842 3.31986
ltoes 21.8591
177
root 7.33083 9.83816 11.9814 95.5744 0.611122 9.45669
lowerback -2.37705 8.16014 7.80945
upperback -4.30634 10.9968 -4.3152
thorax -0.8926 5.4219 -8.45174
lowerneck -20.1224 -2.09615 7.5247
upperneck 29.9117 -5.68078 0.659763
head 13.2697 -1.40022 -1.95495
rclavicle 1.46306e-013 7.15625e-015
rhumerus 87.2159 -31.8717 -38.1501
rradius 23.3727
rwrist 25.5462
rhand -30.3119 -1.49793
rfingers 7.12502
rthumb -3.6187 -31.447
lclavicle 1.46306e-013 7.15625e-015
lhumerus -70.093 -40.4177 77.3941
lradius 24.1362
lwrist -1.9289
lhand -40.1198 -33.0914
lfingers 7.12502
lthumb -13.0832 -3.52181
rfemur -24.747 3.37548 23.5483
rtibia 26.3387
rfoot 23.0483 -7.51473
rtoes 12.7509
lfemur -31.5409 -5.35347 -20.9042
ltibia 39.524
lfoot 6.94053 4.58579
ltoes 22.1178
178
root 7.31155 9.83727 11.9865 95.6609 0.525317 9.80505
lowerback -2.46542 8.05256 8.00128
upperback -4.33036 10.8455 -4.42655
thorax -0.845157 5.34419 -8.67458
lowerneck -20.2437 -2.03023 7.10409
upperneck 30.0476 -5.51168 0.809725
head 13.3769 -1.34622 -1.80427
rclavicle -2.22639e-014 -1.19271e-014
rhumerus 87.888 -31.5985 -39.2914
rradius 22.9504
rwrist 27.336
rhand -30.2615 -1.17761
rfingers 7.12502
rthumb -3.56996 -31.1275
lclavicle -2.22639e-014 -1.19271e-014
lhumerus -68.1844 -40.1776 73.2631
lradius 22.8994
lwrist -2.42167
lhand -40.1619 -32.0395
lfingers 7.12502
lthumb -13.1239 -2.47247
rfemur -24.3469 3.12031 23.5425
rtibia 26.7808
rfoot 23.5087 -6.76301
rtoes 12.8807
lfemur -32.1822 -5.71294 -20.9123
ltibia 38.2307
lfoot 6.46345 6.04758
ltoes 21.7141
179
root 7.29349 9.83723 11.9965 95.7199 0.43355 10.0696
lowerback -2.504 7.94684 8.21532
upperback -4.34733 10.6994 -4.54367
thorax -0.813615 5.26788 -8.92373
lowerneck -20.4394 -1.94202 6.69662
upperneck 30.2391 -5.33354 0.985576
head 13.5245 -1.28053 -1.64541
rclavicle -1.27222e-013 -3.18055e-015
rhumerus 88.382 -31.3833 -40.146
rradius 22.6014
rwrist 28.9723
rhand -30.1678 -0.896052
rfingers 7.12502
rthumb -3.47946 -30.8474
lclavicle -1.27222e-013 -3.18055e-015
lhumerus -66.3519 -39.9197 69.1748
lradius 21.8218
lwrist -2.9458
lhand -40.1426 -30.9303
lfingers 7.12502
lthumb -13.1052 -1.36206
rfemur -23.8506 2.88907 23.5272
rtibia 27.1025
rfoot 24.0645 -5.97636
rtoes 13.0734
lfemur -32.7267 -6.15888 -20.8845
ltibia 36.7986
lfoot 5.90142 7.61366
ltoes 21.1181
180
root 7.27703 9.83809 12.0102 95.792 0.335762 10.2822
lowerback -2.54036 7.83793 8.44692
upperback -4.36953 10.5492 -4.66799
thorax -0.787244 5.18878 -9.19286
lowerneck -20.6376 -1.8415 6.28412
upperneck 30.3853 -5.15409 1.22599
head 13.6562 -1.20933 -1.45796
rclavicle 5.725e-014 2.06736e-014
rhumerus 88.6537 -31.2344 -40.6345
rradius 22.3453
rwrist 30.3353
rhand -30.0336 -0.673756
rfingers 7.12502
rthumb -3.34986 -30.6272
lclavicle 5.725e-014 2.06736e-014
lhumerus -64.6083 -39.6624 65.1594
lradius 20.9167
lwrist -3.37973
lhand -40.0429 -29.7733
lfingers 7.12502
lthumb -13.0091 -0.198974
rfemur -23.3284 2.66076 23.4998
rtibia 27.336
rfoot 24.7284 -5.19746
rtoes 13.448
lfemur -33.2305 -6.72008 -20.8049
ltibia 35.2766
lfoot 5.26974 9.22681
ltoes 20.2798
181
root 7.26172 9.83957 12.0262 95.8776 0.244546 10.4406
lowerback -2.57545 7.72831 8.69515
upperback -4.40079 10.3983 -4.79067
thorax -0.770916 5.10819 -9.47221
lowerneck -20.8654 -1.72532 5.84615
upperneck 30.5731 -4.96987 1.53634
head 13.8156 -1.12781 -1.23693
rclavicle -1.90833e-014 2.38542e-015
rhumerus 88.771 -31.1109 -40.8737
rradius 22.1652
rwrist 31.4836
rhand -29.8762 -0.492168
rfingers 7.12502
rthumb -3.19786 -30.4479
lclavicle -1.90833e-014 2.38542e-015
lhumerus -62.9533 -39.4162 61.2309
lradius 20.1861
lwrist -3.63376
lhand -39.888 -28.5632
lfingers 7.12502
lthumb -12.8598 1.02059
rfemur -22.8115 2.43909 23.4769
rtibia 27.523
rfoot 25.4729 -4.45027
rtoes 13.9737
lfemur -33.7059 -7.38541 -20.6511
ltibia 33.7248
lfoot 4.59207 10.8042
ltoes 19.112
